<?xml version="1.0" encoding="iso-8859-1"?>
<!-- Generator: Adobe Illustrator 19.0.0, SVG Export Plug-In . SVG Version: 6.00 Build 0)  -->
<svg version="1.1" id="Layer_1" xmlns="http://www.w3.org/2000/svg" xmlns:xlink="http://www.w3.org/1999/xlink" x="0px" y="0px"
	 viewBox="0 0 512 512" style="enable-background:new 0 0 512 512;" xml:space="preserve">
<polygon style="fill:#5EBAE7;" points="504.194,370.714 304.037,370.714 256,410.745 215.969,370.714 7.805,370.714 7.805,98.5 
	504.194,98.5 "/>
<polyline style="fill:#36A9E1;" points="504.194,98.5 504.194,370.714 304.037,370.714 256,410.745 215.969,370.714 7.805,370.714 
	"/>
<path style="fill:#1D1D1B;" d="M255.521,421.304l-42.786-42.786H0V90.696h512v287.823H306.864L255.521,421.304z M15.609,362.909
	h203.592l37.278,37.278l44.733-37.278h195.179V106.305H15.609V362.909z"/>
<rect x="55.842" y="146.737" style="fill:#FFFFFF;" width="184.147" height="15.609"/>
<g>
	<rect x="55.842" y="186.769" style="fill:#1D1D1B;" width="24.017" height="15.609"/>
	<rect x="55.842" y="226.801" style="fill:#1D1D1B;" width="176.134" height="15.609"/>
</g>
<rect x="247.988" y="226.801" style="fill:#FFFFFF;" width="128.099" height="15.609"/>
<g>
	<rect x="392.103" y="226.801" style="fill:#1D1D1B;" width="48.035" height="15.609"/>
	<rect x="55.842" y="266.834" style="fill:#1D1D1B;" width="384.298" height="15.609"/>
	<rect x="55.842" y="306.866" style="fill:#1D1D1B;" width="40.031" height="15.609"/>
</g>
<rect x="111.887" y="306.866" style="fill:#FFFFFF;" width="184.147" height="15.609"/>
<rect x="312.048" y="306.866" style="fill:#1D1D1B;" width="128.099" height="15.609"/>
<g>
	<rect x="352.07" y="122.719" style="fill:#FFFFFF;" width="16.013" height="15.609"/>
	<rect x="384.1" y="122.719" style="fill:#FFFFFF;" width="16.013" height="15.609"/>
	<rect x="416.13" y="122.719" style="fill:#FFFFFF;" width="16.012" height="15.609"/>
	<rect x="448.15" y="122.719" style="fill:#FFFFFF;" width="16.014" height="15.609"/>
</g>
<g>
</g>
<g>
</g>
<g>
</g>
<g>
</g>
<g>
</g>
<g>
</g>
<g>
</g>
<g>
</g>
<g>
</g>
<g>
</g>
<g>
</g>
<g>
</g>
<g>
</g>
<g>
</g>
<g>
</g>
</svg>
